<?xml version="1.0" encoding="UTF-8" standalone="no"?>
<!DOCTYPE svg PUBLIC "-//W3C//DTD SVG 1.1//EN"
 "http://www.w3.org/Graphics/SVG/1.1/DTD/svg11.dtd">
<!-- Generated by graphviz version 14.1.3 (0)
 -->
<!-- Title: Committee_Recommendation Pages: 1 -->
<svg width="344pt" height="806pt"
 viewBox="0.00 0.00 344.00 806.00" xmlns="http://www.w3.org/2000/svg" xmlns:xlink="http://www.w3.org/1999/xlink">
<g id="graph0" class="graph" transform="scale(1 1) rotate(0) translate(4 801.75)">
<title>Committee_Recommendation</title>
<polygon fill="white" stroke="none" points="-4,4 -4,-801.75 339.5,-801.75 339.5,4 -4,4"/>
<text xml:space="preserve" text-anchor="middle" x="167.75" y="-778.55" font-family="bold" font-size="16.00">Committee Recommendation Workflow</text>
<g id="clust1" class="cluster">
<title>cluster_initial</title>
<polygon fill="lightgreen" stroke="lightgreen" points="64.75,-676.75 64.75,-759.25 224.75,-759.25 224.75,-676.75 64.75,-676.75"/>
<text xml:space="preserve" text-anchor="middle" x="144.75" y="-740.05" font-family="bold" font-size="16.00">Initial States</text>
</g>
<g id="clust2" class="cluster">
<title>cluster_regular</title>
<polygon fill="lightblue" stroke="lightblue" points="66.75,-130.75 66.75,-644.5 270.75,-644.5 270.75,-130.75 66.75,-130.75"/>
<text xml:space="preserve" text-anchor="middle" x="168.75" y="-625.3" font-family="bold" font-size="16.00">Regular States</text>
</g>
<g id="clust3" class="cluster">
<title>cluster_terminal</title>
<polygon fill="lightcoral" stroke="lightcoral" points="94.75,-8 94.75,-98.5 238.75,-98.5 238.75,-8 94.75,-8"/>
<text xml:space="preserve" text-anchor="middle" x="166.75" y="-79.3" font-family="bold" font-size="16.00">Terminal States</text>
</g>
<!-- Awaiting Action -->
<g id="node1" class="node">
<title>Awaiting Action</title>
<ellipse fill="#b3995d" stroke="black" cx="144.75" cy="-702.75" rx="72.34" ry="18"/>
<text xml:space="preserve" text-anchor="middle" x="144.75" y="-697.7" font-family="Times,serif" font-size="14.00" fill="white">Awaiting Action</text>
</g>
<!-- Sent for Tabling -->
<g id="node7" class="node">
<title>Sent for Tabling</title>
<polygon fill="#b3995d" stroke="black" points="197,-606 92.5,-606 92.5,-570 197,-570 197,-606"/>
<text xml:space="preserve" text-anchor="middle" x="144.75" y="-582.95" font-family="Times,serif" font-size="14.00" fill="white">Sent for Tabling</text>
</g>
<!-- Awaiting Action&#45;&gt;Sent for Tabling -->
<g id="edge8" class="edge">
<title>Awaiting Action&#45;&gt;Sent for Tabling</title>
<path fill="none" stroke="black" d="M144.75,-684.63C144.75,-666.83 144.75,-638.67 144.75,-617.51"/>
<polygon fill="black" stroke="black" points="148.25,-617.8 144.75,-607.8 141.25,-617.8 148.25,-617.8"/>
<text xml:space="preserve" text-anchor="middle" x="156" y="-655.35" font-family="Times,serif" font-size="12.00">table</text>
</g>
<!-- Adopted and Referred -->
<g id="node2" class="node">
<title>Adopted and Referred</title>
<polygon fill="#b3995d" stroke="black" points="213.12,-433.5 76.38,-433.5 76.38,-397.5 213.12,-397.5 213.12,-433.5"/>
<text xml:space="preserve" text-anchor="middle" x="144.75" y="-410.45" font-family="Times,serif" font-size="14.00" fill="white">Adopted and Referred</text>
</g>
<!-- Follow Up -->
<g id="node3" class="node">
<title>Follow Up</title>
<polygon fill="#5b8f22" stroke="black" points="149,-347.25 74.5,-347.25 74.5,-311.25 149,-311.25 149,-347.25"/>
<text xml:space="preserve" text-anchor="middle" x="111.75" y="-324.2" font-family="Times,serif" font-size="14.00" fill="white">Follow Up</text>
</g>
<!-- Adopted and Referred&#45;&gt;Follow Up -->
<g id="edge4" class="edge">
<title>Adopted and Referred&#45;&gt;Follow Up</title>
<path fill="none" stroke="black" d="M137.91,-397.04C133.53,-385.86 127.75,-371.09 122.73,-358.29"/>
<polygon fill="black" stroke="black" points="126.04,-357.13 119.13,-349.09 119.52,-359.68 126.04,-357.13"/>
<text xml:space="preserve" text-anchor="middle" x="153.1" y="-368.1" font-family="Times,serif" font-size="12.00">follow up</text>
</g>
<!-- Response Tabled -->
<g id="node5" class="node">
<title>Response Tabled</title>
<polygon fill="#5b8f22" stroke="black" points="211.88,-261 103.62,-261 103.62,-225 211.88,-225 211.88,-261"/>
<text xml:space="preserve" text-anchor="middle" x="157.75" y="-237.95" font-family="Times,serif" font-size="14.00" fill="white">Response Tabled</text>
</g>
<!-- Adopted and Referred&#45;&gt;Response Tabled -->
<g id="edge5" class="edge">
<title>Adopted and Referred&#45;&gt;Response Tabled</title>
<path fill="none" stroke="black" d="M167.18,-397.36C172.27,-392.23 176.99,-386.17 179.75,-379.5 196.84,-338.23 192.12,-321.92 179.75,-279 179,-276.38 177.98,-273.77 176.8,-271.22"/>
<polygon fill="black" stroke="black" points="179.9,-269.6 171.98,-262.56 173.78,-273 179.9,-269.6"/>
<text xml:space="preserve" text-anchor="middle" x="229.87" y="-324.98" font-family="Times,serif" font-size="12.00">receive response</text>
</g>
<!-- Follow Up&#45;&gt;Response Tabled -->
<g id="edge6" class="edge">
<title>Follow Up&#45;&gt;Response Tabled</title>
<path fill="none" stroke="black" d="M102.69,-310.95C98.84,-301.08 96.34,-288.77 101.75,-279 103.82,-275.27 106.46,-271.89 109.48,-268.83"/>
<polygon fill="black" stroke="black" points="111.65,-271.57 117.03,-262.44 107.13,-266.23 111.65,-271.57"/>
<text xml:space="preserve" text-anchor="middle" x="140.75" y="-281.85" font-family="Times,serif" font-size="12.00">receive response</text>
</g>
<!-- Response Approved -->
<g id="node4" class="node">
<title>Response Approved</title>
<polygon fill="#5b8f22" stroke="black" points="220.12,-174.75 95.38,-174.75 95.38,-138.75 220.12,-138.75 220.12,-174.75"/>
<text xml:space="preserve" text-anchor="middle" x="157.75" y="-151.7" font-family="Times,serif" font-size="14.00" fill="white">Response Approved</text>
</g>
<!-- Closed -->
<g id="node8" class="node">
<title>Closed</title>
<polygon fill="#5b8f22" stroke="black" points="197.27,-30.54 197.27,-45.46 174.12,-56 141.38,-56 118.23,-45.46 118.23,-30.54 141.38,-20 174.12,-20 197.27,-30.54"/>
<polygon fill="none" stroke="black" points="201.27,-27.97 201.27,-48.03 174.99,-60 140.51,-60 114.23,-48.03 114.23,-27.97 140.51,-16 174.99,-16 201.27,-27.97"/>
<text xml:space="preserve" text-anchor="middle" x="157.75" y="-32.95" font-family="Times,serif" font-size="14.00" fill="white">Closed</text>
</g>
<!-- Response Approved&#45;&gt;Closed -->
<g id="edge3" class="edge">
<title>Response Approved&#45;&gt;Closed</title>
<path fill="none" stroke="black" d="M157.75,-138.27C157.75,-120.67 157.75,-93.09 157.75,-71.46"/>
<polygon fill="black" stroke="black" points="161.25,-71.68 157.75,-61.68 154.25,-71.68 161.25,-71.68"/>
<text xml:space="preserve" text-anchor="middle" x="169.38" y="-109.35" font-family="Times,serif" font-size="12.00">done</text>
</g>
<!-- Response Tabled&#45;&gt;Response Approved -->
<g id="edge2" class="edge">
<title>Response Tabled&#45;&gt;Response Approved</title>
<path fill="none" stroke="black" d="M157.75,-224.54C157.75,-213.59 157.75,-199.19 157.75,-186.57"/>
<polygon fill="black" stroke="black" points="161.25,-186.7 157.75,-176.7 154.25,-186.7 161.25,-186.7"/>
<text xml:space="preserve" text-anchor="middle" x="199" y="-195.6" font-family="Times,serif" font-size="12.00">approve response</text>
</g>
<!-- Scheduled -->
<g id="node6" class="node">
<title>Scheduled</title>
<polygon fill="#b3995d" stroke="black" points="180.88,-519.75 108.62,-519.75 108.62,-483.75 180.88,-483.75 180.88,-519.75"/>
<text xml:space="preserve" text-anchor="middle" x="144.75" y="-496.7" font-family="Times,serif" font-size="14.00" fill="white">Scheduled</text>
</g>
<!-- Scheduled&#45;&gt;Adopted and Referred -->
<g id="edge1" class="edge">
<title>Scheduled&#45;&gt;Adopted and Referred</title>
<path fill="none" stroke="black" d="M144.75,-483.29C144.75,-472.34 144.75,-457.94 144.75,-445.32"/>
<polygon fill="black" stroke="black" points="148.25,-445.45 144.75,-435.45 141.25,-445.45 148.25,-445.45"/>
<text xml:space="preserve" text-anchor="middle" x="157.88" y="-454.35" font-family="Times,serif" font-size="12.00">adopt</text>
</g>
<!-- Sent for Tabling&#45;&gt;Scheduled -->
<g id="edge7" class="edge">
<title>Sent for Tabling&#45;&gt;Scheduled</title>
<path fill="none" stroke="black" d="M144.75,-569.54C144.75,-558.59 144.75,-544.19 144.75,-531.57"/>
<polygon fill="black" stroke="black" points="148.25,-531.7 144.75,-521.7 141.25,-531.7 148.25,-531.7"/>
<text xml:space="preserve" text-anchor="middle" x="165.38" y="-540.6" font-family="Times,serif" font-size="12.00">schedule</text>
</g>
</g>
</svg>
