<?xml version="1.0" encoding="UTF-8" standalone="no"?>
<!DOCTYPE svg PUBLIC "-//W3C//DTD SVG 1.1//EN"
 "http://www.w3.org/Graphics/SVG/1.1/DTD/svg11.dtd">
<!-- Generated by graphviz version 14.1.2 (0)
 -->
<!-- Title: Delegation_Report Pages: 1 -->
<svg width="260pt" height="547pt"
 viewBox="0.00 0.00 260.00 547.00" xmlns="http://www.w3.org/2000/svg" xmlns:xlink="http://www.w3.org/1999/xlink">
<g id="graph0" class="graph" transform="scale(1 1) rotate(0) translate(4 543)">
<title>Delegation_Report</title>
<polygon fill="white" stroke="none" points="-4,4 -4,-543 256,-543 256,4 -4,4"/>
<text xml:space="preserve" text-anchor="middle" x="126" y="-519.8" font-family="bold" font-size="16.00">Delegation Report Workflow</text>
<g id="clust1" class="cluster">
<title>cluster_initial</title>
<polygon fill="lightgreen" stroke="lightgreen" points="83,-418 83,-500.5 204,-500.5 204,-418 83,-418"/>
<text xml:space="preserve" text-anchor="middle" x="143.5" y="-481.3" font-family="bold" font-size="16.00">Initial States</text>
</g>
<g id="clust2" class="cluster">
<title>cluster_regular</title>
<polygon fill="lightblue" stroke="lightblue" points="80,-130.75 80,-385.75 213,-385.75 213,-130.75 80,-130.75"/>
<text xml:space="preserve" text-anchor="middle" x="146.5" y="-366.55" font-family="bold" font-size="16.00">Regular States</text>
</g>
<g id="clust3" class="cluster">
<title>cluster_terminal</title>
<polygon fill="lightcoral" stroke="lightcoral" points="8,-8 8,-98.5 244,-98.5 244,-8 8,-8"/>
<text xml:space="preserve" text-anchor="middle" x="126" y="-79.3" font-family="bold" font-size="16.00">Terminal States</text>
</g>
<!-- Draft -->
<g id="node1" class="node">
<title>Draft</title>
<ellipse fill="#00aaff" stroke="black" cx="131" cy="-444" rx="30.37" ry="18"/>
<text xml:space="preserve" text-anchor="middle" x="131" y="-438.95" font-family="Times,serif" font-size="14.00" fill="white">Draft</text>
</g>
<!-- In Review -->
<g id="node3" class="node">
<title>In Review</title>
<polygon fill="#00aaff" stroke="black" points="167.12,-347.25 94.88,-347.25 94.88,-311.25 167.12,-311.25 167.12,-347.25"/>
<text xml:space="preserve" text-anchor="middle" x="131" y="-324.2" font-family="Times,serif" font-size="14.00" fill="white">In Review</text>
</g>
<!-- Draft&#45;&gt;In Review -->
<g id="edge4" class="edge">
<title>Draft&#45;&gt;In Review</title>
<path fill="none" stroke="black" d="M131,-425.88C131,-408.08 131,-379.92 131,-358.76"/>
<polygon fill="black" stroke="black" points="134.5,-359.05 131,-349.05 127.5,-359.05 134.5,-359.05"/>
<text xml:space="preserve" text-anchor="middle" x="167.75" y="-396.6" font-family="Times,serif" font-size="12.00">send for review</text>
</g>
<!-- Approved -->
<g id="node2" class="node">
<title>Approved</title>
<polygon fill="#00aaff" stroke="black" points="166,-261 96,-261 96,-225 166,-225 166,-261"/>
<text xml:space="preserve" text-anchor="middle" x="131" y="-237.95" font-family="Times,serif" font-size="14.00" fill="white">Approved</text>
</g>
<!-- Tabled -->
<g id="node4" class="node">
<title>Tabled</title>
<polygon fill="#00aaff" stroke="black" points="158,-174.75 104,-174.75 104,-138.75 158,-138.75 158,-174.75"/>
<text xml:space="preserve" text-anchor="middle" x="131" y="-151.7" font-family="Times,serif" font-size="14.00" fill="white">Tabled</text>
</g>
<!-- Approved&#45;&gt;Tabled -->
<g id="edge5" class="edge">
<title>Approved&#45;&gt;Tabled</title>
<path fill="none" stroke="black" d="M131,-224.54C131,-213.59 131,-199.19 131,-186.57"/>
<polygon fill="black" stroke="black" points="134.5,-186.7 131,-176.7 127.5,-186.7 134.5,-186.7"/>
<text xml:space="preserve" text-anchor="middle" x="142.25" y="-195.6" font-family="Times,serif" font-size="12.00">table</text>
</g>
<!-- In Review&#45;&gt;Approved -->
<g id="edge2" class="edge">
<title>In Review&#45;&gt;Approved</title>
<path fill="none" stroke="black" d="M131,-310.79C131,-299.84 131,-285.44 131,-272.82"/>
<polygon fill="black" stroke="black" points="134.5,-272.95 131,-262.95 127.5,-272.95 134.5,-272.95"/>
<text xml:space="preserve" text-anchor="middle" x="150.12" y="-281.85" font-family="Times,serif" font-size="12.00">approve</text>
</g>
<!-- Adopted -->
<g id="node5" class="node">
<title>Adopted</title>
<polygon fill="#00aaff" stroke="black" points="112.16,-30.54 112.16,-45.46 85.12,-56 46.88,-56 19.84,-45.46 19.84,-30.54 46.88,-20 85.12,-20 112.16,-30.54"/>
<polygon fill="none" stroke="black" points="116.16,-27.81 116.16,-48.19 85.87,-60 46.13,-60 15.84,-48.19 15.84,-27.81 46.13,-16 85.87,-16 116.16,-27.81"/>
<text xml:space="preserve" text-anchor="middle" x="66" y="-32.95" font-family="Times,serif" font-size="14.00" fill="white">Adopted</text>
</g>
<!-- Tabled&#45;&gt;Adopted -->
<g id="edge1" class="edge">
<title>Tabled&#45;&gt;Adopted</title>
<path fill="none" stroke="black" d="M121.27,-138.27C111.24,-120.26 95.4,-91.81 83.24,-69.97"/>
<polygon fill="black" stroke="black" points="86.44,-68.52 78.52,-61.49 80.33,-71.93 86.44,-68.52"/>
<text xml:space="preserve" text-anchor="middle" x="123.1" y="-109.35" font-family="Times,serif" font-size="12.00">adopt</text>
</g>
<!-- Rejected -->
<g id="node6" class="node">
<title>Rejected</title>
<polygon fill="#00aaff" stroke="black" points="231.72,-30.54 231.72,-45.46 204.35,-56 165.65,-56 138.28,-45.46 138.28,-30.54 165.65,-20 204.35,-20 231.72,-30.54"/>
<polygon fill="none" stroke="black" points="235.72,-27.8 235.72,-48.2 205.1,-60 164.9,-60 134.28,-48.2 134.28,-27.8 164.9,-16 205.1,-16 235.72,-27.8"/>
<text xml:space="preserve" text-anchor="middle" x="185" y="-32.95" font-family="Times,serif" font-size="14.00" fill="white">Rejected</text>
</g>
<!-- Tabled&#45;&gt;Rejected -->
<g id="edge3" class="edge">
<title>Tabled&#45;&gt;Rejected</title>
<path fill="none" stroke="black" d="M139.08,-138.27C147.34,-120.42 160.34,-92.32 170.4,-70.57"/>
<polygon fill="black" stroke="black" points="173.55,-72.08 174.58,-61.54 167.2,-69.14 173.55,-72.08"/>
<text xml:space="preserve" text-anchor="middle" x="165.91" y="-109.35" font-family="Times,serif" font-size="12.00">reject</text>
</g>
</g>
</svg>
