<?xml version="1.0" encoding="UTF-8" standalone="no"?>
<!DOCTYPE svg PUBLIC "-//W3C//DTD SVG 1.1//EN"
 "http://www.w3.org/Graphics/SVG/1.1/DTD/svg11.dtd">
<!-- Generated by graphviz version 2.44.0 (0)
 -->
<!-- Title: Delegation_Report Pages: 1 -->
<svg width="437pt" height="894pt"
 viewBox="0.00 0.00 436.90 894.40" xmlns="http://www.w3.org/2000/svg" xmlns:xlink="http://www.w3.org/1999/xlink">
<g id="graph0" class="graph" transform="scale(1 1) rotate(0) translate(43.2 851.2)">
<title>Delegation_Report</title>
<polygon fill="white" stroke="transparent" points="-43.2,43.2 -43.2,-851.2 393.7,-851.2 393.7,43.2 -43.2,43.2"/>
<!-- header -->
<g id="node1" class="node">
<title>header</title>
<path fill="lightgrey" stroke="transparent" stroke-width="2" d="M267,-808C267,-808 36,-808 36,-808 30,-808 24,-802 24,-796 24,-796 24,-758 24,-758 24,-752 30,-746 36,-746 36,-746 267,-746 267,-746 273,-746 279,-752 279,-758 279,-758 279,-796 279,-796 279,-802 273,-808 267,-808"/>
<image xlink:href="/home/admgelie/Projects/pwms/parliament-logo.png" width="33.7959px" height="36px" preserveAspectRatio="xMinYMin meet" x="42.602" y="-795"/>
<text text-anchor="start" x="104.5" y="-773.6" font-family="Helvetica" font-weight="bold" font-size="18.00">Delegation Report</text>
</g>
<!-- Awaiting PGIR Approval -->
<g id="node2" class="node">
<title>Awaiting PGIR Approval</title>
<ellipse fill="#5b8f22" stroke="black" stroke-width="2.8" cx="151.5" cy="-640.5" rx="86.08" ry="32.5"/>
<text text-anchor="middle" x="151.5" y="-637.4" font-family="Helvetica" font-size="12.00" fill="white">Awaiting PGIR Approval</text>
</g>
<!-- header&#45;&gt;Awaiting PGIR Approval -->
<!-- Submitted for Tabling -->
<g id="node3" class="node">
<title>Submitted for Tabling</title>
<path fill="#1565c0" stroke="black" stroke-width="2.8" d="M211.5,-523C211.5,-523 91.5,-523 91.5,-523 85.5,-523 79.5,-517 79.5,-511 79.5,-511 79.5,-470 79.5,-470 79.5,-464 85.5,-458 91.5,-458 91.5,-458 211.5,-458 211.5,-458 217.5,-458 223.5,-464 223.5,-470 223.5,-470 223.5,-511 223.5,-511 223.5,-517 217.5,-523 211.5,-523"/>
<text text-anchor="middle" x="151.5" y="-487.4" font-family="Helvetica" font-size="12.00" fill="white">Submitted for Tabling</text>
</g>
<!-- Awaiting PGIR Approval&#45;&gt;Submitted for Tabling -->
<g id="edge3" class="edge">
<title>Awaiting PGIR Approval&#45;&gt;Submitted for Tabling</title>
<path fill="none" stroke="#455a64" stroke-width="1.5" d="M151.5,-607.75C151.5,-586.58 151.5,-558.48 151.5,-535.21"/>
<polygon fill="#455a64" stroke="#455a64" stroke-width="1.5" points="155.7,-535.2 151.5,-523.2 147.3,-535.2 155.7,-535.2"/>
<text text-anchor="middle" x="173.5" y="-562.4" font-family="Helvetica" font-size="12.00" fill="#455a64">approve</text>
</g>
<!-- Tabled -->
<g id="node4" class="node">
<title>Tabled</title>
<path fill="#1565c0" stroke="black" stroke-width="2.8" d="M211.5,-373C211.5,-373 91.5,-373 91.5,-373 85.5,-373 79.5,-367 79.5,-361 79.5,-361 79.5,-320 79.5,-320 79.5,-314 85.5,-308 91.5,-308 91.5,-308 211.5,-308 211.5,-308 217.5,-308 223.5,-314 223.5,-320 223.5,-320 223.5,-361 223.5,-361 223.5,-367 217.5,-373 211.5,-373"/>
<text text-anchor="middle" x="151.5" y="-337.4" font-family="Helvetica" font-size="12.00" fill="white">Tabled</text>
</g>
<!-- Submitted for Tabling&#45;&gt;Tabled -->
<g id="edge8" class="edge">
<title>Submitted for Tabling&#45;&gt;Tabled</title>
<path fill="none" stroke="#455a64" stroke-width="1.5" d="M151.5,-457.75C151.5,-436.58 151.5,-408.48 151.5,-385.21"/>
<polygon fill="#455a64" stroke="#455a64" stroke-width="1.5" points="155.7,-385.2 151.5,-373.2 147.3,-385.2 155.7,-385.2"/>
<text text-anchor="middle" x="165" y="-412.4" font-family="Helvetica" font-size="12.00" fill="#455a64">table</text>
</g>
<!-- Referred to Committee -->
<g id="node5" class="node">
<title>Referred to Committee</title>
<path fill="#1565c0" stroke="black" stroke-width="2.8" d="M135,-219C135,-219 12,-219 12,-219 6,-219 0,-213 0,-207 0,-207 0,-166 0,-166 0,-160 6,-154 12,-154 12,-154 135,-154 135,-154 141,-154 147,-160 147,-166 147,-166 147,-207 147,-207 147,-213 141,-219 135,-219"/>
<text text-anchor="middle" x="73.5" y="-183.4" font-family="Helvetica" font-size="12.00" fill="white">Referred to Committee</text>
</g>
<!-- Tabled&#45;&gt;Referred to Committee -->
<g id="edge6" class="edge">
<title>Tabled&#45;&gt;Referred to Committee</title>
<path fill="none" stroke="#455a64" stroke-width="1.5" d="M95.12,-307.85C82.8,-298.06 71.4,-286.08 64.5,-272 58.39,-259.52 57.99,-244.79 59.93,-231.15"/>
<polygon fill="#455a64" stroke="#455a64" stroke-width="1.5" points="64.12,-231.61 62.27,-219.03 55.87,-230.01 64.12,-231.61"/>
<text text-anchor="middle" x="77" y="-262.4" font-family="Helvetica" font-size="12.00" fill="#455a64">refer</text>
</g>
<!-- Report Approved -->
<g id="node7" class="node">
<title>Report Approved</title>
<polygon fill="#cc4b37" stroke="black" stroke-width="2.8" points="346.5,-173.04 346.5,-199.96 304.32,-219 244.68,-219 202.5,-199.96 202.5,-173.04 244.68,-154 304.32,-154 346.5,-173.04"/>
<polygon fill="none" stroke="black" stroke-width="2.8" points="350.5,-170.45 350.5,-202.55 305.18,-223 243.82,-223 198.5,-202.55 198.5,-170.45 243.82,-150 305.18,-150 350.5,-170.45"/>
<text text-anchor="middle" x="274.5" y="-183.4" font-family="Helvetica" font-size="12.00" fill="white">Report Approved</text>
</g>
<!-- Tabled&#45;&gt;Report Approved -->
<g id="edge2" class="edge">
<title>Tabled&#45;&gt;Report Approved</title>
<path fill="none" stroke="#455a64" stroke-width="1.5" d="M177.28,-307.64C194.95,-285.81 218.62,-256.55 238.19,-232.37"/>
<polygon fill="#455a64" stroke="#455a64" stroke-width="1.5" points="241.45,-235.01 245.74,-223.04 234.92,-229.73 241.45,-235.01"/>
<text text-anchor="middle" x="228" y="-262.4" font-family="Helvetica" font-size="12.00" fill="#455a64">adopt</text>
</g>
<!-- Referred to Committee&#45;&gt;Tabled -->
<g id="edge7" class="edge">
<title>Referred to Committee&#45;&gt;Tabled</title>
<path fill="none" stroke="#455a64" stroke-width="1.5" d="M89.7,-219.06C101.24,-241.56 116.9,-272.07 129.57,-296.76"/>
<polygon fill="#455a64" stroke="#455a64" stroke-width="1.5" points="125.93,-298.88 135.15,-307.64 133.41,-295.04 125.93,-298.88"/>
<text text-anchor="middle" x="148.5" y="-262.4" font-family="Helvetica" font-size="12.00" fill="#455a64">report tabled</text>
</g>
<!-- Follow Up -->
<g id="node6" class="node">
<title>Follow Up</title>
<path fill="#1565c0" stroke="black" stroke-width="2.8" d="M133.5,-65C133.5,-65 13.5,-65 13.5,-65 7.5,-65 1.5,-59 1.5,-53 1.5,-53 1.5,-12 1.5,-12 1.5,-6 7.5,0 13.5,0 13.5,0 133.5,0 133.5,0 139.5,0 145.5,-6 145.5,-12 145.5,-12 145.5,-53 145.5,-53 145.5,-59 139.5,-65 133.5,-65"/>
<text text-anchor="middle" x="73.5" y="-29.4" font-family="Helvetica" font-size="12.00" fill="white">Follow Up</text>
</g>
<!-- Referred to Committee&#45;&gt;Follow Up -->
<g id="edge4" class="edge">
<title>Referred to Committee&#45;&gt;Follow Up</title>
<path fill="none" stroke="#455a64" stroke-width="1.5" d="M40.17,-153.93C30.26,-142.42 20.68,-128.61 15.5,-114 10.55,-100.04 15.47,-86.37 24.19,-74.38"/>
<polygon fill="#455a64" stroke="#455a64" stroke-width="1.5" points="27.43,-77.05 31.88,-65.14 20.98,-71.67 27.43,-77.05"/>
<text text-anchor="middle" x="39" y="-104.4" font-family="Helvetica" font-size="12.00" fill="#455a64">deadline</text>
</g>
<!-- Follow Up&#45;&gt;Referred to Committee -->
<g id="edge5" class="edge">
<title>Follow Up&#45;&gt;Referred to Committee</title>
<path fill="none" stroke="#455a64" stroke-width="1.5" d="M73.5,-65.06C73.5,-87.16 73.5,-116.98 73.5,-141.42"/>
<polygon fill="#455a64" stroke="#455a64" stroke-width="1.5" points="69.3,-141.64 73.5,-153.64 77.7,-141.64 69.3,-141.64"/>
<text text-anchor="middle" x="98" y="-104.4" font-family="Helvetica" font-size="12.00" fill="#455a64">follow up</text>
</g>
</g>
</svg>
