<?xml version="1.0" encoding="UTF-8" standalone="no"?>
<!DOCTYPE svg PUBLIC "-//W3C//DTD SVG 1.1//EN"
 "http://www.w3.org/Graphics/SVG/1.1/DTD/svg11.dtd">
<!-- Generated by graphviz version 14.1.3 (0)
 -->
<!-- Title: Delegation_Report Pages: 1 -->
<svg width="255pt" height="547pt"
 viewBox="0.00 0.00 255.00 547.00" xmlns="http://www.w3.org/2000/svg" xmlns:xlink="http://www.w3.org/1999/xlink">
<g id="graph0" class="graph" transform="scale(1 1) rotate(0) translate(4 543)">
<title>Delegation_Report</title>
<polygon fill="white" stroke="none" points="-4,4 -4,-543 251,-543 251,4 -4,4"/>
<text xml:space="preserve" text-anchor="middle" x="123.5" y="-519.8" font-family="bold" font-size="16.00">Delegation Report Workflow</text>
<g id="clust1" class="cluster">
<title>cluster_initial</title>
<polygon fill="lightgreen" stroke="lightgreen" points="9.5,-418 9.5,-500.5 237.5,-500.5 237.5,-418 9.5,-418"/>
<text xml:space="preserve" text-anchor="middle" x="123.5" y="-481.3" font-family="bold" font-size="16.00">Initial States</text>
</g>
<g id="clust2" class="cluster">
<title>cluster_regular</title>
<polygon fill="lightblue" stroke="lightblue" points="11.5,-130.75 11.5,-385.75 235.5,-385.75 235.5,-130.75 11.5,-130.75"/>
<text xml:space="preserve" text-anchor="middle" x="123.5" y="-366.55" font-family="bold" font-size="16.00">Regular States</text>
</g>
<g id="clust3" class="cluster">
<title>cluster_terminal</title>
<polygon fill="lightcoral" stroke="lightcoral" points="28.5,-8 28.5,-98.5 214.5,-98.5 214.5,-8 28.5,-8"/>
<text xml:space="preserve" text-anchor="middle" x="121.5" y="-79.3" font-family="bold" font-size="16.00">Terminal States</text>
</g>
<!-- Awaiting PGIR Approval -->
<g id="node1" class="node">
<title>Awaiting PGIR Approval</title>
<ellipse fill="#b3995d" stroke="black" cx="123.5" cy="-444" rx="105.6" ry="18"/>
<text xml:space="preserve" text-anchor="middle" x="123.5" y="-438.95" font-family="Times,serif" font-size="14.00" fill="white">Awaiting PGIR Approval</text>
</g>
<!-- Submitted for Tabling -->
<g id="node3" class="node">
<title>Submitted for Tabling</title>
<polygon fill="#b3995d" stroke="black" points="191.88,-347.25 55.12,-347.25 55.12,-311.25 191.88,-311.25 191.88,-347.25"/>
<text xml:space="preserve" text-anchor="middle" x="123.5" y="-324.2" font-family="Times,serif" font-size="14.00" fill="white">Submitted for Tabling</text>
</g>
<!-- Awaiting PGIR Approval&#45;&gt;Submitted for Tabling -->
<g id="edge1" class="edge">
<title>Awaiting PGIR Approval&#45;&gt;Submitted for Tabling</title>
<path fill="none" stroke="black" d="M123.5,-425.88C123.5,-408.08 123.5,-379.92 123.5,-358.76"/>
<polygon fill="black" stroke="black" points="127,-359.05 123.5,-349.05 120,-359.05 127,-359.05"/>
<text xml:space="preserve" text-anchor="middle" x="142.62" y="-396.6" font-family="Times,serif" font-size="12.00">approve</text>
</g>
<!-- Follow Up -->
<g id="node2" class="node">
<title>Follow Up</title>
<polygon fill="#5b8f22" stroke="black" points="100.75,-174.75 26.25,-174.75 26.25,-138.75 100.75,-138.75 100.75,-174.75"/>
<text xml:space="preserve" text-anchor="middle" x="63.5" y="-151.7" font-family="Times,serif" font-size="14.00" fill="white">Follow Up</text>
</g>
<!-- Report Approved -->
<g id="node5" class="node">
<title>Report Approved</title>
<polygon fill="#b3995d" stroke="black" points="202.57,-30.54 202.57,-45.46 155.08,-56 87.92,-56 40.43,-45.46 40.43,-30.54 87.92,-20 155.08,-20 202.57,-30.54"/>
<polygon fill="none" stroke="black" points="206.57,-27.33 206.57,-48.67 155.52,-60 87.48,-60 36.43,-48.67 36.43,-27.33 87.48,-16 155.52,-16 206.57,-27.33"/>
<text xml:space="preserve" text-anchor="middle" x="121.5" y="-32.95" font-family="Times,serif" font-size="14.00" fill="white">Report Approved</text>
</g>
<!-- Follow Up&#45;&gt;Report Approved -->
<g id="edge4" class="edge">
<title>Follow Up&#45;&gt;Report Approved</title>
<path fill="none" stroke="black" d="M48.66,-138.32C42.45,-128.85 37.68,-116.97 42.5,-106.5 49.74,-90.79 62.64,-77.38 75.94,-66.75"/>
<polygon fill="black" stroke="black" points="78.04,-69.55 83.94,-60.75 73.84,-63.95 78.04,-69.55"/>
<text xml:space="preserve" text-anchor="middle" x="84.5" y="-109.35" font-family="Times,serif" font-size="12.00">response received</text>
</g>
<!-- Tabled and Referred to Committee -->
<g id="node4" class="node">
<title>Tabled and Referred to Committee</title>
<polygon fill="#b3995d" stroke="black" points="227.12,-261 19.88,-261 19.88,-225 227.12,-225 227.12,-261"/>
<text xml:space="preserve" text-anchor="middle" x="123.5" y="-237.95" font-family="Times,serif" font-size="14.00" fill="white">Tabled and Referred to Committee</text>
</g>
<!-- Submitted for Tabling&#45;&gt;Tabled and Referred to Committee -->
<g id="edge5" class="edge">
<title>Submitted for Tabling&#45;&gt;Tabled and Referred to Committee</title>
<path fill="none" stroke="black" d="M123.5,-310.79C123.5,-299.84 123.5,-285.44 123.5,-272.82"/>
<polygon fill="black" stroke="black" points="127,-272.95 123.5,-262.95 120,-272.95 127,-272.95"/>
<text xml:space="preserve" text-anchor="middle" x="137.75" y="-281.85" font-family="Times,serif" font-size="12.00">tabled</text>
</g>
<!-- Tabled and Referred to Committee&#45;&gt;Follow Up -->
<g id="edge2" class="edge">
<title>Tabled and Referred to Committee&#45;&gt;Follow Up</title>
<path fill="none" stroke="black" d="M102.66,-224.69C97.05,-219.39 91.29,-213.29 86.75,-207 81.99,-200.41 77.8,-192.69 74.34,-185.34"/>
<polygon fill="black" stroke="black" points="77.64,-184.15 70.42,-176.4 71.24,-186.97 77.64,-184.15"/>
<text xml:space="preserve" text-anchor="middle" x="106.62" y="-195.6" font-family="Times,serif" font-size="12.00">deadline</text>
</g>
<!-- Tabled and Referred to Committee&#45;&gt;Report Approved -->
<g id="edge3" class="edge">
<title>Tabled and Referred to Committee&#45;&gt;Report Approved</title>
<path fill="none" stroke="black" d="M125.29,-224.57C125.79,-218.97 126.25,-212.73 126.5,-207 128.41,-162.37 128.15,-151.14 126.5,-106.5 126.08,-95.12 125.26,-82.68 124.4,-71.61"/>
<polygon fill="black" stroke="black" points="127.9,-71.45 123.6,-61.77 120.93,-72.02 127.9,-71.45"/>
<text xml:space="preserve" text-anchor="middle" x="161.96" y="-152.47" font-family="Times,serif" font-size="12.00">report adopted</text>
</g>
</g>
</svg>
