<?xml version="1.0" encoding="UTF-8" standalone="no"?>
<!DOCTYPE svg PUBLIC "-//W3C//DTD SVG 1.1//EN"
 "http://www.w3.org/Graphics/SVG/1.1/DTD/svg11.dtd">
<!-- Generated by graphviz version 2.44.0 (0)
 -->
<!-- Title: International_Resolution Pages: 1 -->
<svg width="408pt" height="610pt"
 viewBox="0.00 0.00 408.40 610.40" xmlns="http://www.w3.org/2000/svg" xmlns:xlink="http://www.w3.org/1999/xlink">
<g id="graph0" class="graph" transform="scale(1 1) rotate(0) translate(43.2 567.2)">
<title>International_Resolution</title>
<polygon fill="white" stroke="transparent" points="-43.2,43.2 -43.2,-567.2 365.2,-567.2 365.2,43.2 -43.2,43.2"/>
<g id="clust1" class="cluster">
<title>cluster_initial</title>
<polygon fill="#e8f5e9" stroke="#e8f5e9" points="89,-316 89,-397 249,-397 249,-316 89,-316"/>
</g>
<g id="clust2" class="cluster">
<title>cluster_regular</title>
<polygon fill="#e3f2fd" stroke="#e3f2fd" points="8,-166 8,-247 168,-247 168,-166 8,-166"/>
</g>
<g id="clust3" class="cluster">
<title>cluster_terminal</title>
<polygon fill="#ffebee" stroke="#ffebee" points="116,-8 116,-97 284,-97 284,-8 116,-8"/>
</g>
<!-- header -->
<g id="node1" class="node">
<title>header</title>
<path fill="lightgrey" stroke="transparent" stroke-width="2" d="M310,-524C310,-524 28,-524 28,-524 22,-524 16,-518 16,-512 16,-512 16,-474 16,-474 16,-468 22,-462 28,-462 28,-462 310,-462 310,-462 316,-462 322,-468 322,-474 322,-474 322,-512 322,-512 322,-518 316,-524 310,-524"/>
<image xlink:href="/home/admgelie/Projects/pwms/parliament-logo.png" width="33.7959px" height="36px" preserveAspectRatio="xMinYMin meet" x="34.102" y="-511"/>
<text text-anchor="start" x="96" y="-489.6" font-family="Helvetica" font-weight="bold" font-size="18.00">International Resolution</text>
</g>
<!-- In Progress -->
<g id="node2" class="node">
<title>In Progress</title>
<ellipse fill="#5b8f22" stroke="black" stroke-width="2.8" cx="169" cy="-356.5" rx="72" ry="32.5"/>
<text text-anchor="middle" x="169" y="-353.4" font-family="Helvetica" font-size="12.00" fill="white">In Progress</text>
</g>
<!-- header&#45;&gt;In Progress -->
<!-- Follow Up -->
<g id="node3" class="node">
<title>Follow Up</title>
<path fill="#1565c0" stroke="black" stroke-width="2.8" d="M148,-239C148,-239 28,-239 28,-239 22,-239 16,-233 16,-227 16,-227 16,-186 16,-186 16,-180 22,-174 28,-174 28,-174 148,-174 148,-174 154,-174 160,-180 160,-186 160,-186 160,-227 160,-227 160,-233 154,-239 148,-239"/>
<text text-anchor="middle" x="88" y="-203.4" font-family="Helvetica" font-size="12.00" fill="white">Follow Up</text>
</g>
<!-- In Progress&#45;&gt;Follow Up -->
<g id="edge2" class="edge">
<title>In Progress&#45;&gt;Follow Up</title>
<path fill="none" stroke="#455a64" stroke-width="1.5" d="M152.22,-324.83C140.32,-303.1 124.21,-273.67 111.11,-249.72"/>
<polygon fill="#455a64" stroke="#455a64" stroke-width="1.5" points="114.77,-247.66 105.32,-239.15 107.4,-251.69 114.77,-247.66"/>
<text text-anchor="middle" x="154.5" y="-278.4" font-family="Helvetica" font-size="12.00" fill="#455a64">deadline</text>
</g>
<!-- Implemented -->
<g id="node4" class="node">
<title>Implemented</title>
<polygon fill="#cc4b37" stroke="black" stroke-width="2.8" points="272,-39.04 272,-65.96 229.82,-85 170.18,-85 128,-65.96 128,-39.04 170.18,-20 229.82,-20 272,-39.04"/>
<polygon fill="none" stroke="black" stroke-width="2.8" points="276,-36.45 276,-68.55 230.68,-89 169.32,-89 124,-68.55 124,-36.45 169.32,-16 230.68,-16 276,-36.45"/>
<text text-anchor="middle" x="200" y="-49.4" font-family="Helvetica" font-size="12.00" fill="white">Implemented</text>
</g>
<!-- In Progress&#45;&gt;Implemented -->
<g id="edge4" class="edge">
<title>In Progress&#45;&gt;Implemented</title>
<path fill="none" stroke="#455a64" stroke-width="1.5" d="M180.3,-324.28C183.96,-312.99 187.67,-300.05 190,-288 202.3,-224.28 203.17,-149.08 202.07,-101.35"/>
<polygon fill="#455a64" stroke="#455a64" stroke-width="1.5" points="206.26,-101.12 201.73,-89.24 197.86,-101.35 206.26,-101.12"/>
<text text-anchor="middle" x="226.5" y="-203.4" font-family="Helvetica" font-size="12.00" fill="#455a64">complete</text>
</g>
<!-- Follow Up&#45;&gt;Implemented -->
<g id="edge3" class="edge">
<title>Follow Up&#45;&gt;Implemented</title>
<path fill="none" stroke="#275937" stroke-width="1.5" stroke-dasharray="5,2" d="M111.48,-173.64C127.42,-152 148.74,-123.07 166.46,-99.02"/>
<polygon fill="#275937" stroke="#275937" stroke-width="1.5" points="170.07,-101.2 173.81,-89.04 163.31,-96.21 170.07,-101.2"/>
<text text-anchor="middle" x="167" y="-128.4" font-family="Helvetica" font-size="12.00" fill="#275937">actioned</text>
</g>
</g>
</svg>
