<?xml version="1.0" encoding="UTF-8" standalone="no"?>
<!DOCTYPE svg PUBLIC "-//W3C//DTD SVG 1.1//EN"
 "http://www.w3.org/Graphics/SVG/1.1/DTD/svg11.dtd">
<!-- Generated by graphviz version 2.44.0 (0)
 -->
<!-- Title: International_Resolution Pages: 1 -->
<svg width="440pt" height="594pt"
 viewBox="0.00 0.00 440.40 594.40" xmlns="http://www.w3.org/2000/svg" xmlns:xlink="http://www.w3.org/1999/xlink">
<g id="graph0" class="graph" transform="scale(1 1) rotate(0) translate(43.2 551.2)">
<title>International_Resolution</title>
<polygon fill="white" stroke="transparent" points="-43.2,43.2 -43.2,-551.2 397.2,-551.2 397.2,43.2 -43.2,43.2"/>
<!-- header -->
<g id="node1" class="node">
<title>header</title>
<path fill="lightgrey" stroke="transparent" stroke-width="2" d="M342,-508C342,-508 60,-508 60,-508 54,-508 48,-502 48,-496 48,-496 48,-458 48,-458 48,-452 54,-446 60,-446 60,-446 342,-446 342,-446 348,-446 354,-452 354,-458 354,-458 354,-496 354,-496 354,-502 348,-508 342,-508"/>
<image xlink:href="/home/admgelie/Projects/pwms/parliament-logo.png" width="33.7959px" height="36px" preserveAspectRatio="xMinYMin meet" x="66.102" y="-495"/>
<text text-anchor="start" x="128" y="-473.6" font-family="Helvetica" font-weight="bold" font-size="18.00">International Resolution</text>
</g>
<!-- In Progress -->
<g id="node2" class="node">
<title>In Progress</title>
<ellipse fill="#5b8f22" stroke="black" stroke-width="2.8" cx="201" cy="-340.5" rx="72" ry="32.5"/>
<text text-anchor="middle" x="201" y="-337.4" font-family="Helvetica" font-size="12.00" fill="white">In Progress</text>
</g>
<!-- header&#45;&gt;In Progress -->
<!-- Follow Up -->
<g id="node3" class="node">
<title>Follow Up</title>
<path fill="#1565c0" stroke="black" stroke-width="2.8" d="M132,-223C132,-223 12,-223 12,-223 6,-223 0,-217 0,-211 0,-211 0,-170 0,-170 0,-164 6,-158 12,-158 12,-158 132,-158 132,-158 138,-158 144,-164 144,-170 144,-170 144,-211 144,-211 144,-217 138,-223 132,-223"/>
<text text-anchor="middle" x="72" y="-187.4" font-family="Helvetica" font-size="12.00" fill="white">Follow Up</text>
</g>
<!-- In Progress&#45;&gt;Follow Up -->
<g id="edge2" class="edge">
<title>In Progress&#45;&gt;Follow Up</title>
<path fill="none" stroke="#455a64" stroke-width="1.5" d="M175.2,-309.91C155.78,-287.62 128.91,-256.79 107.46,-232.19"/>
<polygon fill="#455a64" stroke="#455a64" stroke-width="1.5" points="110.58,-229.38 99.53,-223.09 104.25,-234.9 110.58,-229.38"/>
<text text-anchor="middle" x="164.5" y="-262.4" font-family="Helvetica" font-size="12.00" fill="#455a64">deadline</text>
</g>
<!-- Implemented -->
<g id="node4" class="node">
<title>Implemented</title>
<polygon fill="#cc4b37" stroke="black" stroke-width="2.8" points="230,-23.04 230,-49.96 187.82,-69 128.18,-69 86,-49.96 86,-23.04 128.18,-4 187.82,-4 230,-23.04"/>
<polygon fill="none" stroke="black" stroke-width="2.8" points="234,-20.45 234,-52.55 188.68,-73 127.32,-73 82,-52.55 82,-20.45 127.32,0 188.68,0 234,-20.45"/>
<text text-anchor="middle" x="158" y="-33.4" font-family="Helvetica" font-size="12.00" fill="white">Implemented</text>
</g>
<!-- In Progress&#45;&gt;Implemented -->
<g id="edge4" class="edge">
<title>In Progress&#45;&gt;Implemented</title>
<path fill="none" stroke="#455a64" stroke-width="1.5" d="M201.82,-307.7C201.89,-292.87 201.53,-275 200,-259 194.22,-198.46 179.98,-129.8 169.68,-85.19"/>
<polygon fill="#455a64" stroke="#455a64" stroke-width="1.5" points="173.72,-84 166.89,-73.27 165.54,-85.91 173.72,-84"/>
<text text-anchor="middle" x="219.5" y="-187.4" font-family="Helvetica" font-size="12.00" fill="#455a64">complete</text>
</g>
<!-- Follow Up&#45;&gt;Implemented -->
<g id="edge3" class="edge">
<title>Follow Up&#45;&gt;Implemented</title>
<path fill="none" stroke="#275937" stroke-width="1.5" stroke-dasharray="5,2" d="M90.03,-157.64C102.16,-136.2 118.35,-107.59 131.88,-83.66"/>
<polygon fill="#275937" stroke="#275937" stroke-width="1.5" points="135.64,-85.56 137.89,-73.04 128.32,-81.42 135.64,-85.56"/>
<text text-anchor="middle" x="138" y="-112.4" font-family="Helvetica" font-size="12.00" fill="#275937">actioned</text>
</g>
</g>
</svg>
