<?xml version="1.0" encoding="UTF-8" standalone="no"?>
<!DOCTYPE svg PUBLIC "-//W3C//DTD SVG 1.1//EN"
 "http://www.w3.org/Graphics/SVG/1.1/DTD/svg11.dtd">
<!-- Generated by graphviz version 14.1.2 (0)
 -->
<!-- Title: Software_development Pages: 1 -->
<svg width="291pt" height="263pt"
 viewBox="0.00 0.00 291.00 263.00" xmlns="http://www.w3.org/2000/svg" xmlns:xlink="http://www.w3.org/1999/xlink">
<g id="graph0" class="graph" transform="scale(1 1) rotate(0) translate(4 259)">
<title>Software_development</title>
<polygon fill="white" stroke="none" points="-4,4 -4,-259 287,-259 287,4 -4,4"/>
<text xml:space="preserve" text-anchor="middle" x="141.5" y="-235.8" font-family="bold" font-size="16.00">Software development Workflow</text>
<!-- Approved -->
<g id="node1" class="node">
<title>Approved</title>
<polygon fill="#6b7280" stroke="black" points="158.82,-134.25 88.82,-134.25 88.82,-98.25 158.82,-98.25 158.82,-134.25"/>
<text xml:space="preserve" text-anchor="middle" x="123.82" y="-111.2" font-family="Times,serif" font-size="14.00" fill="white">Approved</text>
</g>
<!-- Completed -->
<g id="node2" class="node">
<title>Completed</title>
<polygon fill="#228b22" stroke="black" points="179.96,-14.54 179.96,-29.46 147.08,-40 100.57,-40 67.69,-29.46 67.69,-14.54 100.57,-4 147.08,-4 179.96,-14.54"/>
<polygon fill="none" stroke="black" points="183.96,-11.63 183.96,-32.37 147.7,-44 99.95,-44 63.69,-32.37 63.69,-11.63 99.95,0 147.7,0 183.96,-11.63"/>
<text xml:space="preserve" text-anchor="middle" x="123.82" y="-16.95" font-family="Times,serif" font-size="14.00" fill="white">Completed</text>
</g>
<!-- Approved&#45;&gt;Completed -->
<g id="edge2" class="edge">
<title>Approved&#45;&gt;Completed</title>
<path fill="none" stroke="black" d="M123.82,-97.9C123.82,-86.07 123.82,-70.05 123.82,-55.85"/>
<polygon fill="black" stroke="black" points="127.32,-56.01 123.82,-46.01 120.32,-56.01 127.32,-56.01"/>
<text xml:space="preserve" text-anchor="middle" x="145.2" y="-64.85" font-family="Times,serif" font-size="12.00">complete</text>
</g>
<!-- Draft -->
<g id="node3" class="node">
<title>Draft</title>
<ellipse fill="#ff8c00" stroke="black" cx="34.82" cy="-116.25" rx="30.37" ry="18"/>
<text xml:space="preserve" text-anchor="middle" x="34.82" y="-111.2" font-family="Times,serif" font-size="14.00" fill="white">Draft</text>
</g>
<!-- In Review -->
<g id="node4" class="node">
<title>In Review</title>
<polygon fill="#6b7280" stroke="black" points="138.95,-224.5 66.7,-224.5 66.7,-188.5 138.95,-188.5 138.95,-224.5"/>
<text xml:space="preserve" text-anchor="middle" x="102.82" y="-201.45" font-family="Times,serif" font-size="14.00" fill="white">In Review</text>
</g>
<!-- Draft&#45;&gt;In Review -->
<g id="edge5" class="edge">
<title>Draft&#45;&gt;In Review</title>
<path fill="none" stroke="black" d="M46.91,-133.12C55,-143.72 65.9,-157.97 75.57,-170.5 77.72,-173.28 79.96,-176.17 82.2,-179.06"/>
<polygon fill="black" stroke="black" points="79.38,-181.14 88.28,-186.88 84.91,-176.84 79.38,-181.14"/>
<text xml:space="preserve" text-anchor="middle" x="91.7" y="-159.1" font-family="Times,serif" font-size="12.00">review</text>
</g>
<!-- In Review&#45;&gt;Approved -->
<g id="edge1" class="edge">
<title>In Review&#45;&gt;Approved</title>
<path fill="none" stroke="black" stroke-dasharray="5,2" d="M106.97,-188.06C109.85,-175.98 113.74,-159.61 117.06,-145.66"/>
<polygon fill="black" stroke="black" points="120.42,-146.66 119.33,-136.12 113.61,-145.04 120.42,-146.66"/>
<text xml:space="preserve" text-anchor="middle" x="133.08" y="-159.1" font-family="Times,serif" font-size="12.00">approve</text>
</g>
<!-- In Review&#45;&gt;Draft -->
<g id="edge3" class="edge">
<title>In Review&#45;&gt;Draft</title>
<path fill="none" stroke="black" d="M66.38,-198.85C50.24,-193.89 32.75,-185.31 23.07,-170.5 18.05,-162.81 18.52,-153.3 21.05,-144.45"/>
<polygon fill="black" stroke="black" points="24.28,-145.8 24.55,-135.21 17.73,-143.32 24.28,-145.8"/>
<text xml:space="preserve" text-anchor="middle" x="38.45" y="-159.1" font-family="Times,serif" font-size="12.00">redraft</text>
</g>
<!-- Rejected -->
<g id="node5" class="node">
<title>Rejected</title>
<polygon fill="#228b22" stroke="black" points="274.54,-108.79 274.54,-123.71 247.18,-134.25 208.47,-134.25 181.11,-123.71 181.11,-108.79 208.47,-98.25 247.18,-98.25 274.54,-108.79"/>
<polygon fill="none" stroke="black" points="278.54,-106.05 278.54,-126.45 247.92,-138.25 207.73,-138.25 177.11,-126.45 177.11,-106.05 207.73,-94.25 247.92,-94.25 278.54,-106.05"/>
<text xml:space="preserve" text-anchor="middle" x="227.82" y="-111.2" font-family="Times,serif" font-size="14.00" fill="white">Rejected</text>
</g>
<!-- In Review&#45;&gt;Rejected -->
<g id="edge4" class="edge">
<title>In Review&#45;&gt;Rejected</title>
<path fill="none" stroke="black" d="M129.7,-188.15C138.13,-182.6 147.42,-176.38 155.82,-170.5 168.19,-161.85 181.53,-152.11 193.32,-143.34"/>
<polygon fill="black" stroke="black" points="195.27,-146.25 201.19,-137.47 191.09,-140.65 195.27,-146.25"/>
<text xml:space="preserve" text-anchor="middle" x="186.58" y="-159.1" font-family="Times,serif" font-size="12.00">reject</text>
</g>
</g>
</svg>
