<?xml version="1.0" encoding="UTF-8" standalone="no"?>
<!DOCTYPE svg PUBLIC "-//W3C//DTD SVG 1.1//EN"
 "http://www.w3.org/Graphics/SVG/1.1/DTD/svg11.dtd">
<!-- Generated by graphviz version 14.1.3 (0)
 -->
<!-- Title: Delegation_Report Pages: 1 -->
<svg width="268pt" height="428pt"
 viewBox="0.00 0.00 268.00 428.00" xmlns="http://www.w3.org/2000/svg" xmlns:xlink="http://www.w3.org/1999/xlink">
<g id="graph0" class="graph" transform="scale(1 1) rotate(0) translate(4 423.5)">
<title>Delegation_Report</title>
<polygon fill="white" stroke="none" points="-4,4 -4,-423.5 264.01,-423.5 264.01,4 -4,4"/>
<text xml:space="preserve" text-anchor="middle" x="130.01" y="-400.3" font-family="bold" font-size="16.00">Delegation Report Workflow</text>
<!-- Awaiting PGIR Approval -->
<g id="node1" class="node">
<title>Awaiting PGIR Approval</title>
<ellipse fill="#b3995d" stroke="black" cx="139.41" cy="-371" rx="105.6" ry="18"/>
<text xml:space="preserve" text-anchor="middle" x="139.41" y="-365.95" font-family="Times,serif" font-size="14.00" fill="white">Awaiting PGIR Approval</text>
</g>
<!-- Submitted for Tabling -->
<g id="node4" class="node">
<title>Submitted for Tabling</title>
<polygon fill="#b3995d" stroke="black" points="207.79,-302.75 71.04,-302.75 71.04,-266.75 207.79,-266.75 207.79,-302.75"/>
<text xml:space="preserve" text-anchor="middle" x="139.41" y="-279.7" font-family="Times,serif" font-size="14.00" fill="white">Submitted for Tabling</text>
</g>
<!-- Awaiting PGIR Approval&#45;&gt;Submitted for Tabling -->
<g id="edge1" class="edge">
<title>Awaiting PGIR Approval&#45;&gt;Submitted for Tabling</title>
<path fill="none" stroke="black" d="M139.41,-352.54C139.41,-341.59 139.41,-327.19 139.41,-314.57"/>
<polygon fill="black" stroke="black" points="142.91,-314.7 139.41,-304.7 135.91,-314.7 142.91,-314.7"/>
<text xml:space="preserve" text-anchor="middle" x="158.54" y="-323.6" font-family="Times,serif" font-size="12.00">approve</text>
</g>
<!-- Closed – House approved -->
<g id="node2" class="node">
<title>Closed – House approved</title>
<polygon fill="#b3995d" stroke="black" points="234.82,-14.54 234.82,-29.46 167.22,-40 71.61,-40 4,-29.46 4,-14.54 71.61,-4 167.22,-4 234.82,-14.54"/>
<polygon fill="none" stroke="black" points="238.82,-11.12 238.82,-32.88 167.53,-44 71.3,-44 0,-32.88 0,-11.12 71.3,0 167.53,0 238.82,-11.12"/>
<text xml:space="preserve" text-anchor="middle" x="119.41" y="-16.95" font-family="Times,serif" font-size="14.00" fill="white">Closed – House approved</text>
</g>
<!-- Follow Up -->
<g id="node3" class="node">
<title>Follow Up</title>
<polygon fill="#5b8f22" stroke="black" points="252.66,-130.25 178.16,-130.25 178.16,-94.25 252.66,-94.25 252.66,-130.25"/>
<text xml:space="preserve" text-anchor="middle" x="215.41" y="-107.2" font-family="Times,serif" font-size="14.00" fill="white">Follow Up</text>
</g>
<!-- Follow Up&#45;&gt;Closed – House approved -->
<g id="edge4" class="edge">
<title>Follow Up&#45;&gt;Closed – House approved</title>
<path fill="none" stroke="black" d="M196.45,-93.81C183.44,-81.86 165.89,-65.73 150.82,-51.87"/>
<polygon fill="black" stroke="black" points="153.6,-49.67 143.87,-45.48 148.86,-54.82 153.6,-49.67"/>
<text xml:space="preserve" text-anchor="middle" x="218.01" y="-64.85" font-family="Times,serif" font-size="12.00">response received</text>
</g>
<!-- Tabled and Referred to Committee -->
<g id="node5" class="node">
<title>Tabled and Referred to Committee</title>
<polygon fill="#b3995d" stroke="black" points="243.04,-216.5 35.79,-216.5 35.79,-180.5 243.04,-180.5 243.04,-216.5"/>
<text xml:space="preserve" text-anchor="middle" x="139.41" y="-193.45" font-family="Times,serif" font-size="14.00" fill="white">Tabled and Referred to Committee</text>
</g>
<!-- Submitted for Tabling&#45;&gt;Tabled and Referred to Committee -->
<g id="edge5" class="edge">
<title>Submitted for Tabling&#45;&gt;Tabled and Referred to Committee</title>
<path fill="none" stroke="black" d="M139.41,-266.29C139.41,-255.34 139.41,-240.94 139.41,-228.32"/>
<polygon fill="black" stroke="black" points="142.91,-228.45 139.41,-218.45 135.91,-228.45 142.91,-228.45"/>
<text xml:space="preserve" text-anchor="middle" x="153.66" y="-237.35" font-family="Times,serif" font-size="12.00">tabled</text>
</g>
<!-- Tabled and Referred to Committee&#45;&gt;Closed – House approved -->
<g id="edge3" class="edge">
<title>Tabled and Referred to Committee&#45;&gt;Closed – House approved</title>
<path fill="none" stroke="black" d="M130.27,-180.08C123.85,-166.83 115.83,-147.91 112.41,-130.25 107.6,-105.36 109.87,-76.69 113.05,-55.25"/>
<polygon fill="black" stroke="black" points="116.46,-56.09 114.63,-45.65 109.56,-54.95 116.46,-56.09"/>
<text xml:space="preserve" text-anchor="middle" x="140.91" y="-107.97" font-family="Times,serif" font-size="12.00">report noted</text>
</g>
<!-- Tabled and Referred to Committee&#45;&gt;Follow Up -->
<g id="edge2" class="edge">
<title>Tabled and Referred to Committee&#45;&gt;Follow Up</title>
<path fill="none" stroke="black" d="M155.16,-180.04C165.86,-168.18 180.19,-152.29 192.2,-138.99"/>
<polygon fill="black" stroke="black" points="194.57,-141.58 198.67,-131.81 189.37,-136.89 194.57,-141.58"/>
<text xml:space="preserve" text-anchor="middle" x="204.84" y="-151.1" font-family="Times,serif" font-size="12.00">follow up</text>
</g>
</g>
</svg>
